<?xml version="1.0" encoding="utf-8"?><!DOCTYPE svg PUBLIC "-//W3C//DTD SVG 1.1//EN" "http://www.w3.org/Graphics/SVG/1.1/DTD/svg11.dtd"><svg version="1.1" id="Layer_1" xmlns="http://www.w3.org/2000/svg" xmlns:xlink="http://www.w3.org/1999/xlink" x="0px" y="0px" width="79.596px" height="50.921px" viewBox="0 0 79.596 50.921" enable-background="new 0 0 79.596 50.921" xml:space="preserve"><path fill="#FFFFFF" d="M76.157,36.226c-2.347,6.623-8.357,11.266-14.97,11.297c-0.857,0-1.725-0.062-2.572-0.205c-1.418-0.275-2.774-0.734-4.07-1.387c4.102-3.174,7.152-7.633,8.703-12.695h0.021l0.949-3.357H42.012l0.021,3.347l17.46,0.03c-3.051,8.358-10.684,13.92-19.297,13.96c-2.734,0.021-5.378-0.51-7.888-1.571c1.233-1.194,2.296-2.541,3.194-4.021l0.662-1.112l-3.643,0.01l-0.214,0.296c-3.011,4.357-7.868,6.97-13.001,6.99c-8.909,0.041-16.195-7.51-16.235-16.848C3.02,21.623,10.235,14,19.144,13.949c4.949-0.02,9.582,2.296,12.684,6.348l0.214,0.265l3.746-0.01l-0.744-1.133c-2.623-3.959-6.44-6.766-10.838-7.99c3.939-4.898,9.633-7.695,15.777-7.725c9.531-0.051,17.848,6.653,20.225,16.307l0.134,0.541l3.611-0.021l-0.193-0.877c-0.438-1.99-1.112-3.919-2.011-5.746c7.46,0.092,13.327,5.46,14.746,13.328l3.103-0.01c-0.449-2.776-1.459-5.45-2.97-7.797c-0.011-0.03-0.398-0.622-0.612-0.918c-1.663-2.306-3.816-4.245-6.235-5.613c-2.959-1.745-5.214-2.377-8.327-2.367c-0.541,0.01-1.082,0.03-1.622,0.081C55.238,3.918,47.839-0.041,39.971,0c-7.857,0.04-15.204,4.061-19.735,10.776c-0.378-0.031-0.745-0.041-1.102-0.041C8.531,10.796-0.051,19.868,0,30.971c0.051,11.112,8.725,20.103,19.327,20.052c3.45-0.021,6.827-1,9.777-2.858c3.418,1.827,7.255,2.776,11.112,2.756c3.897-0.021,7.766-1.031,11.205-2.929c2.061,1.265,4.296,2.102,6.643,2.49c1.184,0.225,2.388,0.337,3.582,0.337c1.765-0.011,3.541-0.357,5.245-1.011c5.868-1.939,10.633-7.174,12.501-13.602L76.157,36.226z"/></svg>